<?xml version="1.0" encoding="UTF-8" standalone="no"?>
<!DOCTYPE svg PUBLIC "-//W3C//DTD SVG 1.1//EN" "http://www.w3.org/Graphics/SVG/1.1/DTD/svg11.dtd">
<!-- Created with Vectornator (http://vectornator.io/) -->
<svg height="100%" stroke-miterlimit="10" style="fill-rule:nonzero;clip-rule:evenodd;stroke-linecap:round;stroke-linejoin:round;" version="1.1" viewBox="0 0 20 25" width="100%" xml:space="preserve" xmlns="http://www.w3.org/2000/svg" xmlns:vectornator="http://vectornator.io" xmlns:xlink="http://www.w3.org/1999/xlink">
<defs/>
<g id="Untitled" vectornator:layerName="Untitled">
<path d="M19.3613 8.52335C19.2188 8.63586 16.7031 10.0785 16.7031 13.2863C16.7031 16.9967 19.9042 18.3093 20 18.3418C19.9853 18.4218 19.4915 20.1395 18.3122 21.8897C17.2608 23.4298 16.1626 24.9675 14.4921 24.9675C12.8215 24.9675 12.3916 23.9799 10.4631 23.9799C8.58371 23.9799 7.91549 25 6.38742 25C4.85935 25 3.79315 23.5749 2.56725 21.8247C1.14728 19.7695 0 16.5767 0 13.5464C0 8.68587 3.10527 6.10811 6.16141 6.10811C7.78528 6.10811 9.13893 7.19322 10.1585 7.19322C11.1289 7.19322 12.6422 6.0431 14.4896 6.0431C15.1898 6.0431 17.7054 6.10811 19.3613 8.52335ZM13.6126 3.9854C14.3766 3.06281 14.9171 1.78268 14.9171 0.50255C14.9171 0.325033 14.9023 0.145015 14.8704 0C13.6273 0.0475048 12.1484 0.842584 11.2566 1.89519C10.5564 2.70527 9.90296 3.9854 9.90296 5.28303C9.90296 5.47805 9.9349 5.67307 9.94964 5.73557C10.0283 5.75058 10.156 5.76808 10.2837 5.76808C11.3991 5.76808 12.8019 5.008 13.6126 3.9854Z" fill="#000000" fill-rule="nonzero" opacity="1" stroke="none"/>
</g>
</svg>
